<svg xmlns="http://www.w3.org/2000/svg" width="158" height="200" viewBox="0 0 158 200">
  <defs>
    <style>
      .cls-1 {
        fill: #fff;
      }

      .cls-1, .cls-2 {
        fill-rule: evenodd;
      }

      .cls-2 {
        fill: none;
        stroke: #fff;
        stroke-width: 5px;
      }
    </style>
  </defs>
  <g id="Artboard_1" data-name="Artboard 1">
    <path id="O" class="cls-1" d="M23.275,5.079h87.983a14,14,0,0,1,14,14V156.416a14,14,0,0,1-14,14H23.275a14,14,0,0,1-14-14V19.079A14,14,0,0,1,23.275,5.079ZM55.713,78.531a14.378,14.378,0,0,1-10.36,4.209q-8.325,0-13.459-4.718A14.523,14.523,0,0,1,26.76,67.015a16.756,16.756,0,0,1,.832-5.642l-0.277-.463q-1.019-1.2-4.625-1.2a4.234,4.234,0,0,0-3.515,2.174,10.476,10.476,0,0,0-1.48,5.966q0,8.141,7.816,13.551A31.527,31.527,0,0,0,43.919,86.81q10.59,0,17.621-5.273t7.03-15.17a20.529,20.529,0,0,0-2.081-9.62A16.025,16.025,0,0,0,61.078,50.6a38.213,38.213,0,0,0-7.354-3.7Q49.7,45.37,45.676,44.075a52.138,52.138,0,0,1-7.354-2.96,14.177,14.177,0,0,1-5.411-4.671,12.934,12.934,0,0,1-2.081-7.539,10.033,10.033,0,0,1,3.422-7.678q3.421-3.144,9.3-3.145a17.963,17.963,0,0,1,10.314,3.006,9.477,9.477,0,0,1,4.44,8.279q0,3.423-.925,4.625l0.278,0.462q1.017,1.388,4.625,1.388a4.222,4.222,0,0,0,3.376-1.8q1.433-1.8,1.434-5.5,0-5.364-5.92-9.9T45.306,14.105q-9.945,0-16.28,4.9T22.69,32.513a16.42,16.42,0,0,0,2.081,8.51,15.552,15.552,0,0,0,5.365,5.5A40.313,40.313,0,0,0,37.4,49.949q3.976,1.435,7.955,2.821a51.1,51.1,0,0,1,7.261,3.145,14.637,14.637,0,0,1,5.365,4.9A13.434,13.434,0,0,1,60.06,68.4,13.591,13.591,0,0,1,55.713,78.531ZM79.8,92.783q-8.141,0-16,6.938a24.757,24.757,0,0,0-6.336,9.435,35.743,35.743,0,0,0-2.451,13.6q0,16.189,7.909,25.715T84.566,158q13.736,0,21.923-10.036t8.186-26.409q0-16.372-8.926-27.056T81.93,83.81a40.948,40.948,0,0,0-11.562,1.572A30.283,30.283,0,0,0,61.4,89.5a33.9,33.9,0,0,0-6.29,5.689,22,22,0,0,0-3.885,6.243,16.679,16.679,0,0,0-1.2,6.059q0,2.961,2.405,3.145a1.781,1.781,0,0,0,1.758-.74q0.369-8.787,8.186-15.124a29.086,29.086,0,0,1,18.916-6.336q11.1,0,17.991,9.389t6.891,23.587q0,14.2-5.874,23.541T84.52,154.295q-9.9,0-15.447-8.834t-5.55-21.645q0-12.81,5.087-19.749T82.948,97.13a1.2,1.2,0,0,0,.555-1.3,2.864,2.864,0,0,0-1.017-2.081,3.725,3.725,0,0,0-2.683-.971h0Z"/>
    <path id="Rounded_Rectangle_1" data-name="Rounded Rectangle 1" class="cls-2" d="M28.485,173.154a17.274,17.274,0,0,0,17.274,17.274h81.435a17.274,17.274,0,0,0,17.274-17.274V42.365a17.274,17.274,0,0,0-17.274-17.274"/>
  </g>
</svg>
